<svg xmlns="http://www.w3.org/2000/svg" width="450" height="800" viewBox="0 0 450 800"><rect width="100%" height="100%" fill="#DDDDDD"/><path fill="#999999" d="M97.41 405.34h13.2v-14.19q0-2.01.27-4.44zm19.65 0h5.46v4.29q0 .6-.39 1.03-.39.44-1.11.44h-3.96v10.59h-6.45V411.1h-18.3q-.75 0-1.32-.46-.57-.47-.72-1.16l-.78-3.75 20.55-27.45h7.02zm20.7-20.31-1.53 9.03q1.44-.3 2.76-.43 1.32-.14 2.55-.14 3.42 0 6.03 1.02t4.38 2.82 2.67 4.22q.9 2.41.9 5.2 0 3.45-1.22 6.3-1.21 2.85-3.37 4.88-2.16 2.02-5.11 3.13-2.96 1.11-6.44 1.11-2.04 0-3.87-.42t-3.43-1.12q-1.61-.71-2.98-1.63-1.36-.91-2.44-1.93l2.28-3.15q.72-1.02 1.89-1.02.75 0 1.53.48t1.79 1.05q1 .57 2.37 1.05 1.36.48 3.28.48 2.04 0 3.6-.66t2.6-1.84q1.03-1.19 1.55-2.82.53-1.64.53-3.56 0-3.54-2.06-5.53-2.05-2-6.07-2-3.09 0-6.33 1.14l-4.62-1.32 3.6-21.06h21.42v3.15q0 1.59-.99 2.58t-3.36.99zM192.15 400q0 5.67-1.22 9.86-1.21 4.18-3.36 6.91-2.14 2.73-5.07 4.07-2.92 1.33-6.31 1.33t-6.29-1.33q-2.89-1.34-5.02-4.07t-3.33-6.91q-1.2-4.19-1.2-9.86 0-5.7 1.2-9.87t3.33-6.9 5.02-4.06q2.9-1.34 6.29-1.34t6.31 1.34q2.93 1.33 5.07 4.06 2.15 2.73 3.36 6.9 1.22 4.17 1.22 9.87m-7.65 0q0-4.71-.69-7.8t-1.85-4.92q-1.15-1.83-2.65-2.57-1.5-.73-3.12-.73-1.59 0-3.08.73-1.48.74-2.62 2.57t-1.81 4.92q-.68 3.09-.68 7.8t.68 7.8q.67 3.09 1.81 4.92t2.62 2.57q1.49.73 3.08.73 1.62 0 3.12-.73 1.5-.74 2.65-2.57 1.16-1.83 1.85-4.92t.69-7.8m55.29 11.76-3.93 3.87-10.17-10.17-10.26 10.23-3.93-3.87 10.26-10.29-9.78-9.78 3.9-3.9 9.78 9.78 9.72-9.72 3.96 3.9-9.75 9.75zm35.22 4.62q1.83 0 3.21-.52 1.38-.53 2.32-1.46.95-.93 1.43-2.22t.48-2.79q0-3.57-1.98-5.4t-5.46-1.83-5.46 1.83-1.98 5.4q0 1.5.48 2.79t1.42 2.22q.95.93 2.33 1.46 1.38.52 3.21.52m0-32.97q-1.65 0-2.85.51t-2 1.36q-.79.86-1.17 1.97-.37 1.11-.37 2.34 0 1.29.31 2.51.32 1.21 1.07 2.16.75.94 1.98 1.51t3.03.57 3.03-.57 1.98-1.51q.75-.95 1.06-2.16.32-1.22.32-2.51 0-1.23-.39-2.34t-1.17-1.97q-.78-.85-1.98-1.36t-2.85-.51m7.32 15.66q3.96 1.29 5.85 3.94 1.89 2.66 1.89 6.5 0 2.88-1.1 5.22-1.09 2.34-3.07 3.99t-4.76 2.55q-2.77.9-6.13.9t-6.14-.9q-2.77-.9-4.75-2.55t-3.08-3.99q-1.09-2.34-1.09-5.22 0-3.84 1.89-6.5 1.89-2.65 5.85-3.94-3.15-1.32-4.73-3.75-1.57-2.43-1.57-5.85 0-2.46 1-4.59 1.01-2.13 2.81-3.71 1.8-1.57 4.3-2.46 2.51-.88 5.51-.88t5.5.88q2.51.89 4.31 2.46 1.8 1.58 2.8 3.71 1.01 2.13 1.01 4.59 0 3.42-1.58 5.85-1.57 2.43-4.72 3.75m43.38.93q0 5.67-1.22 9.86-1.21 4.18-3.36 6.91-2.14 2.73-5.07 4.07-2.92 1.33-6.31 1.33t-6.29-1.33q-2.89-1.34-5.02-4.07t-3.33-6.91q-1.2-4.19-1.2-9.86 0-5.7 1.2-9.87t3.33-6.9 5.02-4.06q2.9-1.34 6.29-1.34t6.31 1.34q2.93 1.33 5.07 4.06 2.15 2.73 3.36 6.9 1.22 4.17 1.22 9.87m-7.65 0q0-4.71-.69-7.8t-1.85-4.92q-1.15-1.83-2.65-2.57-1.5-.73-3.12-.73-1.59 0-3.08.73-1.48.74-2.62 2.57t-1.82 4.92q-.67 3.09-.67 7.8t.67 7.8q.68 3.09 1.82 4.92t2.62 2.57q1.49.73 3.08.73 1.62 0 3.12-.73 1.5-.74 2.65-2.57 1.16-1.83 1.85-4.92t.69-7.8m42.45 0q0 5.67-1.22 9.86-1.21 4.18-3.36 6.91-2.14 2.73-5.07 4.07-2.92 1.33-6.31 1.33t-6.29-1.33q-2.89-1.34-5.02-4.07t-3.33-6.91q-1.2-4.19-1.2-9.86 0-5.7 1.2-9.87t3.33-6.9 5.02-4.06q2.9-1.34 6.29-1.34t6.31 1.34q2.93 1.33 5.07 4.06 2.15 2.73 3.36 6.9 1.22 4.17 1.22 9.87m-7.65 0q0-4.71-.69-7.8t-1.85-4.92q-1.15-1.83-2.65-2.57-1.5-.73-3.12-.73-1.59 0-3.08.73-1.48.74-2.62 2.57t-1.82 4.92q-.67 3.09-.67 7.8t.67 7.8q.68 3.09 1.82 4.92t2.62 2.57q1.49.73 3.08.73 1.62 0 3.12-.73 1.5-.74 2.65-2.57 1.16-1.83 1.85-4.92t.69-7.8"/></svg>